<svg width="20" height="20" viewBox="0 0 20 20" fill="none" xmlns="http://www.w3.org/2000/svg">
<path d="M14 2H6C3.79086 2 2 3.79086 2 6V14C2 16.2091 3.79086 18 6 18H14C16.2091 18 18 16.2091 18 14V6C18 3.79086 16.2091 2 14 2Z" stroke="black" stroke-linecap="round" stroke-linejoin="round"/>
<path d="M12.9675 9.55995C13.0601 10.1841 12.9535 10.8216 12.6629 11.3817C12.3722 11.9418 11.9124 12.396 11.3488 12.6797C10.7851 12.9634 10.1464 13.0621 9.52339 12.9619C8.9004 12.8616 8.32487 12.5675 7.87868 12.1213C7.43249 11.6751 7.13835 11.0996 7.0381 10.4766C6.93786 9.85361 7.0366 9.21487 7.3203 8.65123C7.60399 8.08759 8.05819 7.62776 8.61829 7.33713C9.17839 7.04651 9.81587 6.93989 10.4401 7.03245C11.0767 7.12687 11.6662 7.42355 12.1213 7.87868C12.5765 8.33381 12.8731 8.92326 12.9675 9.55995Z" stroke="black" stroke-linecap="round" stroke-linejoin="round"/>
<path d="M14.5835 5.41663H14.5918" stroke="black" stroke-linecap="round" stroke-linejoin="round"/>
</svg>
